<?xml version="1.0" encoding="UTF-8" standalone="no"?>
<!-- Created with Inkscape (http://www.inkscape.org/) -->

<svg
   width="221.19168mm"
   height="167.68927mm"
   viewBox="0 0 221.19168 167.68927"
   version="1.1"
   id="svg5"
   xml:space="preserve"
   sodipodi:docname="icloudbridge_menubar.svg"
   inkscape:export-filename="icloudbridge_menubar.pdf"
   inkscape:export-xdpi="96"
   inkscape:export-ydpi="96"
   inkscape:version="1.2.2 (03908c27, 2023-01-22)"
   xmlns:inkscape="http://www.inkscape.org/namespaces/inkscape"
   xmlns:sodipodi="http://sodipodi.sourceforge.net/DTD/sodipodi-0.dtd"
   xmlns="http://www.w3.org/2000/svg"
   xmlns:svg="http://www.w3.org/2000/svg"><sodipodi:namedview
     id="namedview6"
     pagecolor="#ffffff"
     bordercolor="#000000"
     borderopacity="0.25"
     inkscape:showpageshadow="2"
     inkscape:pageopacity="0.0"
     inkscape:pagecheckerboard="0"
     inkscape:deskcolor="#d1d1d1"
     inkscape:document-units="mm"
     showgrid="false"
     inkscape:zoom="1.4904305"
     inkscape:cx="186.18781"
     inkscape:cy="319.03533"
     inkscape:window-width="2104"
     inkscape:window-height="1205"
     inkscape:window-x="24"
     inkscape:window-y="31"
     inkscape:window-maximized="0"
     inkscape:current-layer="svg5" /><defs
     id="defs2" /><g
     id="layer1"
     transform="translate(-17.952987,-31.502658)"><path
       style="fill:#000000;stroke-width:0.352778"
       d="m 120.08215,199.05597 c -14.16331,-1.52973 -28.012467,-6.47754 -39.334718,-14.0529 -5.71216,-3.82182 -8.524998,-6.09703 -12.99778,-10.51343 -7.830241,-7.73156 -12.688263,-14.5885 -17.549896,-24.77113 -1.243362,-2.60421 -2.260658,-4.89959 -2.260658,-5.10085 0,-0.24383 -3.232841,-0.36592 -9.688977,-0.36592 -9.432698,0 -9.6993,-0.0193 -10.079239,-0.72921 -0.30358,-0.56724 -0.265352,-0.91985 0.172109,-1.5875 0.536226,-0.81839 0.733422,-0.85829 4.241515,-0.85829 h 3.679143 l -0.925579,-1.78401 c -0.963122,-1.85638 -1.233536,-4.3155 -0.725153,-6.59446 l 0.255764,-1.14653 H 31.21653 c -3.943245,0 -4.60364,-0.27613 -4.382985,-1.83267 0.113455,-0.80033 0.194789,-0.81471 5.152073,-0.9111 l 5.036798,-0.0979 1.576172,-1.20312 c 1.006612,-0.76837 2.164989,-1.29142 3.205636,-1.44748 l 1.629464,-0.24435 -0.235509,-2.15875 c -0.12953,-1.18732 -0.326728,-2.75407 -0.438216,-3.48167 l -0.202707,-1.32292 h -3.843031 c -3.744606,0 -3.853201,-0.0223 -4.240112,-0.8715 -0.736665,-1.6168 0.0056,-1.95072 4.335959,-1.95072 h 3.837359 v -2.38341 c 0,-5.34455 1.4151,-14.465274 3.227614,-20.802894 5.695534,-19.91496 19.069608,-37.4799 37.003119,-48.59835 4.255343,-2.63823 12.189975,-6.44739 16.775784,-8.0535 4.282322,-1.49982 10.903902,-3.14042 16.194872,-4.01251 5.48569,-0.9042 19.85223,-0.90109 25.4,0.006 9.81516,1.60392 17.92104,4.1919 26.10556,8.33478 17.33134,8.77286 30.56075,22.27997 38.80086,39.61536 4.7097,9.90817 7.94219,23.256924 7.94219,32.797694 v 2.74456 l 2.38125,0.046 c 5.31186,0.10259 5.77248,0.15315 6.09899,0.66944 0.47409,0.74966 0.41473,1.27532 -0.21516,1.9052 -0.43552,0.43553 -1.37108,0.55437 -4.36415,0.55437 h -3.80979 l -0.24073,2.20486 c -0.1324,1.21267 -0.32533,2.76049 -0.42875,3.43958 l -0.18802,1.23473 1.8681,0.44124 c 1.02745,0.24268 2.46058,0.91737 3.18471,1.4993 l 1.31662,1.05807 h 4.91639 c 5.37519,0 5.99621,0.21603 5.56461,1.93569 -0.22164,0.88305 -0.23856,0.88653 -4.31047,0.88653 -3.75597,0 -4.06711,0.0501 -3.83113,0.61736 0.41781,1.00423 0.62763,3.836 0.38146,5.14817 -0.12578,0.67048 -0.61659,1.79065 -1.09068,2.48927 l -0.86198,1.2702 h 3.63886 c 3.19329,0 3.7172,0.0866 4.27867,0.70699 0.52866,0.58417 0.57012,0.85995 0.23863,1.5875 l -0.40119,0.88051 -9.62076,0.006 -9.62075,0.006 -1.70132,3.98229 c -6.52471,15.27243 -18.7536,29.3075 -33.33982,38.26405 -9.54036,5.85817 -20.43844,9.89584 -32.16303,11.91619 -3.26,0.56175 -18.28491,0.99724 -21.69584,0.62884 z m 14.99306,-1.89428 c 26.24089,-2.28622 49.54205,-15.92597 63.56456,-37.20865 2.72084,-4.12955 5.8952,-10.13014 7.32633,-13.84922 l 0.71271,-1.85208 h -21.44375 c -16.20809,0 -21.5471,-0.10336 -21.86707,-0.42333 -0.67075,-0.67075 -0.49806,-1.9813 0.31867,-2.4184 0.45593,-0.24401 2.08819,-0.3508 4.23368,-0.27699 1.92042,0.0661 3.49151,0.0978 3.49133,0.0704 -1.9e-4,-0.0273 -0.31436,-0.74169 -0.69816,-1.5875 -1.48334,-3.269 -0.56972,-6.88853 2.39822,-9.50101 3.09983,-2.72858 6.90683,-3.09867 10.93871,-1.06339 1.18659,0.59899 2.24133,1.08907 2.34388,1.08907 0.36283,0 0.17917,-2.0881 -0.37337,-4.24485 -0.4442,-1.73388 -0.48555,-2.60674 -0.20024,-4.22648 0.35369,-2.00792 1.81269,-5.37659 2.51724,-5.81203 0.19771,-0.12219 0.35948,-1.47383 0.35948,-3.00363 0,-2.71305 -0.0259,-2.79675 -1.05263,-3.40326 -0.57895,-0.342 -1.30077,-1.14472 -1.60405,-1.78383 -0.44007,-0.92738 -0.76179,-1.16203 -1.5932,-1.16203 h -1.04178 v 8.29028 c 0,4.55965 -0.0664,8.29027 -0.14754,8.29027 -0.0811,0 -0.39864,-0.0964 -0.70555,-0.21413 -0.48669,-0.18676 -0.55802,-1.26177 -0.55802,-8.40883 v -8.19469 l -2.20487,-0.62812 c -1.21267,-0.34546 -2.48267,-0.7075 -2.82222,-0.80454 -0.5737,-0.16395 -0.61736,0.33789 -0.61736,7.09667 0,7.01403 -0.0249,7.27309 -0.69868,7.27309 -0.67187,0 -0.70232,-0.29219 -0.79375,-7.61703 l -0.0951,-7.61702 -2.91042,-1.90166 -2.91041,-1.90166 v 7.93118 c 0,7.696 -0.0209,7.93119 -0.70556,7.93119 -0.68619,0 -0.70555,-0.23519 -0.70555,-8.56812 v -8.568134 l -1.77986,-1.75062 c -0.97892,-0.96285 -2.36798,-2.60353 -3.08681,-3.64597 l -1.30695,-1.89534 -0.0932,10.979374 c -0.0513,6.03865 -0.21936,10.97936 -0.37354,10.97936 -0.15418,0 -0.54775,-0.19843 -0.8746,-0.44097 -0.53016,-0.3934 -0.60404,-1.56863 -0.68479,-10.89426 l -0.0905,-10.453284 -2.02847,2.42892 -2.02848,2.42892 v 7.407004 c 0,7.17182 -0.0224,7.40701 -0.70555,7.40701 -0.6808,0 -0.70556,-0.23519 -0.70556,-6.70278 0,-3.68653 -0.13414,-6.702784 -0.2981,-6.702784 -0.16396,0 -0.58379,0.31569 -0.93297,0.70152 -0.34918,0.38584 -1.40566,1.19614 -2.34773,1.800674 l -1.71286,1.09914 v 4.17574 c 0,2.29665 -0.14443,4.26499 -0.32095,4.37409 -0.17651,0.10909 -0.57339,0.10148 -0.88194,-0.0169 -0.46262,-0.17752 -0.561,-0.85309 -0.561,-3.85232 v -3.63704 l -2.91042,1.19889 c -1.60073,0.65939 -3.10885,1.20179 -3.35139,1.20534 -0.29795,0.004 -0.44097,0.62898 -0.44097,1.92591 0,1.0557 -0.1657,2.02187 -0.36823,2.14704 -0.68736,0.42481 -1.39566,-0.60581 -1.39566,-2.03076 0,-1.10871 -0.11254,-1.36248 -0.53272,-1.20124 -0.83786,0.32152 -4.75979,0.91772 -6.68503,1.01624 -1.54274,0.0789 -1.77411,0.19386 -1.95618,0.97149 -0.27955,1.19397 -1.20409,1.13333 -1.34464,-0.0882 -0.10708,-0.9306 -0.19335,-0.97039 -2.11667,-0.97626 -1.10277,-0.004 -3.11623,-0.24149 -4.47435,-0.52917 -1.35812,-0.28767 -2.49993,-0.52304 -2.53736,-0.52304 -0.0374,0 -0.11685,0.67469 -0.17652,1.49931 -0.0888,1.22796 -0.23617,1.4993 -0.81403,1.4993 -0.6013,0 -0.7212,-0.27048 -0.81144,-1.83056 -0.10226,-1.76785 -0.1506,-1.84505 -1.41111,-2.25336 -0.71787,-0.23254 -2.21804,-0.8536 -3.3337,-1.38013 l -2.02847,-0.95734 v 3.79031 c 0,3.13933 -0.0964,3.82729 -0.561,4.0056 -0.30856,0.1184 -0.70543,0.12601 -0.88195,0.0169 -0.17652,-0.1091 -0.32688,-2.13367 -0.33414,-4.49906 l -0.0132,-4.30072 -2.45624,-1.652704 -2.45624,-1.65269 v 4.511364 c 0,6.5511 -0.2878,8.8482 -1.10859,8.8482 -0.61798,0 -0.65619,-0.43694 -0.67092,-7.67292 l -0.0156,-7.672924 -2.039102,-2.18568 -2.03911,-2.18569 -0.0854,10.646014 c -0.0848,10.58183 -0.18022,11.41062 -1.273241,11.06477 -0.219802,-0.0695 -0.419266,-4.14695 -0.529167,-10.81711 l -0.176389,-10.705494 -0.941031,1.42269 c -0.517567,0.78248 -1.82433,2.37675 -2.903919,3.54284 l -1.962887,2.12015 -0.09469,8.426534 -0.09468,8.42654 -0.79375,0.11273 -0.79375,0.11273 v -7.78565 c 0,-7.1334 -0.171217,-8.582854 -0.878639,-7.43822 -0.118096,0.19109 -1.318091,1.00293 -2.666654,1.8041 l -2.451929,1.45666 v 7.54452 c 0,4.14948 -0.06639,7.54452 -0.147536,7.54452 -0.08115,0 -0.398646,0.0964 -0.705555,0.21413 -0.498034,0.19111 -0.558021,-0.59036 -0.558021,-7.26969 0,-6.66074 -0.06101,-7.4604 -0.55475,-7.27094 -0.305114,0.11708 -1.572316,0.48402 -2.81601,0.81542 l -2.261256,0.60254 -0.09441,8.3017 c -0.0837,7.36007 -0.159893,8.3143 -0.671731,8.41271 -0.515553,0.0991 -0.605095,-0.77791 -0.836933,-8.19744 -0.257394,-8.23731 -0.266238,-8.30843 -1.033036,-8.30843 -0.534483,0 -0.952779,0.37612 -1.353986,1.21745 -0.31931,0.6696 -0.98371,1.48161 -1.476449,1.80446 -0.820473,0.5376 -0.89602,0.79889 -0.897467,3.10408 -0.0014,2.21166 0.159121,2.83412 1.322917,5.13015 1.218357,2.40368 1.322426,2.84187 1.298642,5.46805 -0.01422,1.57024 -0.23459,3.69294 -0.489708,4.71712 -0.255119,1.02418 -0.378612,1.94739 -0.274426,2.05157 0.104186,0.10418 1.180863,-0.31105 2.392616,-0.92274 2.816507,-1.42177 5.265431,-1.69822 7.745762,-0.87438 4.924965,1.63581 7.781544,7.45038 5.682696,11.56715 l -0.667526,1.30931 h 1.496244 c 0.822935,0 2.713704,0.10291 4.20171,0.2287 2.461564,0.20807 2.724344,0.3039 2.914844,1.06291 0.487232,1.94129 1.172485,1.88339 -22.289283,1.88339 H 50.105193 l 0.888664,2.18702 c 5.46328,13.44521 16.22937,26.72352 28.871631,35.6087 15.848058,11.13826 36.367992,16.75581 55.209722,15.11423 z m 21.60611,-59.06477 -1.07046,-0.90074 h -8.85672 c -8.62152,0 -8.85671,-0.0187 -8.85671,-0.70555 0,-0.687 0.23519,-0.70556 8.94116,-0.70556 8.49313,0 8.97315,-0.0353 9.57968,-0.70555 0.75181,-0.83074 2.23068,-0.91756 3.19576,-0.18761 0.37664,0.28487 1.1177,0.52299 1.6468,0.52917 1.28869,0.015 2.25467,1.41404 1.69649,2.457 -0.32029,0.59846 -0.73078,0.72922 -2.28928,0.72922 -1.04446,0 -2.12789,0.0878 -2.40764,0.19517 -0.27974,0.10735 -0.99033,-0.21015 -1.57908,-0.70555 z m -62.457776,0.087 c -1.048982,-1.04898 0.157656,-3.1457 1.511363,-2.62623 0.257651,0.0989 0.7461,-0.12703 1.085441,-0.502 0.83998,-0.92817 2.82587,-0.91432 3.411732,0.0238 0.42245,0.67646 0.82269,0.70556 9.70438,0.70556 9.02856,0 9.26375,0.0179 9.26375,0.70556 0,0.68764 -0.23519,0.70555 -9.26375,0.70555 -8.88169,0 -9.28193,0.0291 -9.70438,0.70556 -0.375182,0.60076 -0.822692,0.70555 -3.012912,0.70555 -1.530302,0 -2.743776,-0.17148 -2.995624,-0.42333 z m -8.521976,-6.43116 c -1.053846,-1.70516 -2.845781,-3.18615 -4.722142,-3.90274 -2.155949,-0.82337 -5.824707,-0.61815 -8.01629,0.44839 -2.078355,1.01144 -2.158975,0.99745 -2.027639,-0.35186 0.09662,-0.99263 0.446835,-1.34344 2.780259,-2.78492 11.722795,-7.2418 26.907064,-12.38855 42.133064,-14.28112 5.8914,-0.7323 17.47808,-0.82809 23.39717,-0.19343 13.46609,1.44385 25.03,4.74868 36.57505,10.45273 7.54433,3.72741 9.95542,5.27866 10.24355,6.59049 0.35588,1.62029 -0.0697,1.7314 -2.40319,0.62747 -4.67346,-2.21093 -9.8627,-0.86733 -12.44422,3.22205 l -0.87304,1.38299 h -4.02732 c -3.19083,0 -4.14247,-0.11514 -4.58169,-0.55436 -1.39455,-1.39455 -0.21108,-2.40015 2.82468,-2.40015 1.24597,0 2.2654,-0.041 2.2654,-0.0911 0,-0.20574 -6.00765,-4.72913 -8.46667,-6.37488 -12.79112,-8.56072 -29.67213,-11.19595 -44.52111,-6.95004 -6.10905,1.74682 -10.89704,3.90141 -15.451112,6.95297 -3.29897,2.21055 -8.112136,5.97352 -8.113134,6.34291 -3.53e-4,0.1522 0.753311,0.1786 1.674943,0.0587 2.346339,-0.30536 3.615972,0.24182 3.615972,1.55841 0,0.61317 -0.225605,1.11589 -0.55802,1.24345 -0.30691,0.11777 -2.357713,0.21413 -4.557339,0.21413 h -3.999318 z m 36.051152,0.82039 c -1.16387,-0.43262 -1.65599,-1.95667 -0.96992,-3.00374 0.82961,-1.26615 2.15721,-1.448 3.2275,-0.4421 l 0.89048,0.83689 12.57911,0.1012 c 6.91851,0.0557 12.71817,0.24026 12.88814,0.41023 0.99607,0.99607 -0.38983,1.10452 -12.81646,1.00294 -11.16229,-0.0912 -12.70899,-0.0376 -13.28723,0.46048 -0.93538,0.80579 -1.59901,0.97333 -2.51162,0.6341 z m -13.52315,-5.73508 c -1.46023,-0.728 -1.31568,-3.17263 0.22217,-3.75732 0.89586,-0.3406 2.63458,0.16523 2.63458,0.76647 0,0.16288 2.68577,0.29615 5.96837,0.29615 6.20077,0 7.08441,0.11193 7.08441,0.89742 0,0.36876 -1.35107,0.49279 -6.31396,0.57962 -5.16465,0.0904 -6.43289,0.21307 -6.96736,0.6742 -0.9942,0.85776 -1.70356,1.00445 -2.62821,0.54346 z m 35.37664,-0.40165 c -1.00621,-0.84667 -1.24111,-0.88194 -5.87376,-0.88194 -4.14686,0 -4.8096,-0.076 -4.71158,-0.53997 0.0938,-0.44397 0.98672,-0.56812 5.02249,-0.6983 4.31061,-0.13905 5.00084,-0.24514 5.66718,-0.87114 0.96174,-0.9035 1.61592,-0.89919 2.78237,0.0183 1.19878,0.94296 1.19878,2.18084 0,3.12379 -1.19839,0.94266 -1.61295,0.92101 -2.8867,-0.15078 z m -93.260958,-11.7799 c 3.121098,-2.59579 4.361877,-3.03676 8.544697,-3.03676 3.368495,0 3.895097,0.0914 5.588808,0.97013 1.028446,0.53358 1.934622,0.97014 2.013733,0.97014 0.07911,0 0.143831,-0.72073 0.143831,-1.60163 0,-1.40965 -0.169136,-1.76252 -1.411111,-2.94399 -1.196175,-1.13789 -1.411112,-1.56149 -1.411112,-2.78102 0,-1.73863 1.269224,-3.44476 2.815224,-3.78432 1.238853,-0.2721 3.382599,0.64244 3.937839,1.67992 0.339655,0.63465 0.624339,0.68695 2.763411,0.50762 2.728175,-0.22873 7.724306,-1.98403 10.83037,-3.80507 2.17841,-1.277174 8.422351,-7.259344 9.247618,-8.859924 0.429348,-0.8327 0.414302,-1.11104 -0.121021,-2.23915 -1.178732,-2.484 0.169902,-4.99521 2.859247,-5.32405 2.961782,-0.36215 4.916884,2.33604 3.769872,5.2027 -0.67208,1.67969 -0.55022,1.90758 2.857492,5.34387 3.95882,3.99202 8.08413,6.437084 14.42528,8.549804 8.81784,2.9379 17.72382,2.40736 26.86165,-1.60018 4.98787,-2.187514 9.25272,-5.437084 12.57802,-9.583714 1.00988,-1.25933 1.02826,-1.34589 0.50191,-2.36374 -0.84414,-1.63238 -0.68795,-3.03863 0.48304,-4.3492 0.87738,-0.98196 1.26692,-1.15209 2.63781,-1.15209 1.26137,0 1.80614,0.19771 2.52474,0.91631 1.17036,1.17036 1.52562,3.39907 0.73432,4.60674 -0.5357,0.81757 -0.50656,0.93988 0.62385,2.61843 1.54608,2.29579 6.27526,6.70496 8.83091,8.233354 2.77333,1.65856 7.74702,3.47185 10.46287,3.81451 2.24402,0.28313 2.26818,0.27688 3.36026,-0.86805 2.13264,-2.23587 5.75582,-1.2239 6.31639,1.7642 0.28299,1.50846 -0.54306,3.28962 -1.7889,3.85726 -0.76215,0.34726 -0.86498,0.61982 -0.86498,2.29263 v 1.89853 l 1.49931,-0.8645 c 2.27958,-1.31439 5.13596,-1.78031 7.93072,-1.29362 2.7455,0.4781 4.61492,1.35678 6.86104,3.22486 1.44321,1.20032 1.87712,1.37296 3.45066,1.37296 1.30611,0 1.85786,-0.15115 2.01129,-0.55098 0.31368,-0.81744 -0.4982,-9.41912 -1.32008,-13.98582 -2.4036,-13.355464 -8.68897,-27.011264 -17.26084,-37.501484 -11.196,-13.70163 -27.17092,-23.7901 -44.65602,-28.20115 -7.0214,-1.77132 -12.4064,-2.41724 -20.25219,-2.4292 -10.0992,-0.0154 -17.8302,1.22664 -27.32387,4.38979 -26.397105,8.7951 -47.070413,30.70251 -53.974796,57.19684 -1.735494,6.659644 -2.318621,10.320924 -2.557046,16.054914 l -0.20903,5.02709 h 2.016997 c 1.825856,0 2.173434,-0.13011 3.667787,-1.37296 z M 133.0257,92.834376 c 0.10912,-0.5666 0.78529,-0.61736 8.22312,-0.61736 7.43783,0 8.114,0.0508 8.22312,0.61736 0.11053,0.57391 -0.46824,0.61736 -8.22312,0.61736 -7.75488,0 -8.33364,-0.0435 -8.22312,-0.61736 z m -20.52827,-4.32153 c -0.38805,-0.38805 -0.70555,-1.07783 -0.70555,-1.53282 0,-1.80144 2.52404,-2.66417 3.79699,-1.29783 0.59303,0.63655 1.19969,0.70553 6.9811,0.79375 5.34999,0.0816 6.33163,0.17866 6.33163,0.62579 0,0.44736 -0.9879,0.544 -6.39056,0.62514 -5.85015,0.0879 -6.44395,0.15497 -7.02203,0.79375 -0.80969,0.89469 -2.09244,0.89136 -2.99158,-0.008 z m 29.89545,0.0153 c -0.4032,-0.57565 -0.97686,-0.70741 -3.45569,-0.79375 -2.50141,-0.0871 -2.99092,-0.20132 -3.09019,-0.72089 -0.10456,-0.54719 0.20945,-0.61736 2.76267,-0.61736 2.34647,0 3.04697,-0.13083 3.77761,-0.70555 1.70811,-1.34361 3.97682,-0.49382 3.97682,1.48959 0,1.72862 -2.99301,2.74453 -3.97122,1.34794 z M 18.37632,137.83118 c -0.232834,-0.23283 -0.423334,-0.7567 -0.423334,-1.16416 0,-1.40821 0.617577,-1.5875 5.468056,-1.5875 3.124044,0 4.758551,0.13716 5.044722,0.42333 0.544161,0.54416 0.544161,1.78418 0,2.32833 -0.58775,0.58775 -9.501694,0.58775 -10.089444,0 z m 210.44959,0.0423 c -0.82886,-0.48276 -0.78901,-1.97172 0.065,-2.42877 0.3753,-0.20086 2.64542,-0.36519 5.04472,-0.36519 4.57962,0 5.20903,0.19182 5.20903,1.5875 0,1.40161 -0.62359,1.58804 -5.27403,1.57677 -2.43505,-0.006 -4.70518,-0.17254 -5.04472,-0.37031 z M 35.309653,124.42563 c -0.648095,-0.6481 -0.503717,-1.97827 0.259031,-2.38648 0.751122,-0.40199 2.925455,-0.4759 4.17219,-0.14183 0.944931,0.25321 1.406781,1.67917 0.786089,2.42706 -0.54065,0.65144 -4.588561,0.73 -5.21731,0.10125 z m 181.341537,0.0138 c -0.2404,-0.24041 -0.43709,-0.80615 -0.43709,-1.25721 0,-0.98833 1.13992,-1.50822 3.30693,-1.50822 1.95888,0 2.78521,0.61454 2.63236,1.95768 -0.11734,1.03112 -0.14179,1.0419 -2.59178,1.14288 -1.62056,0.0668 -2.62404,-0.0488 -2.91042,-0.33514 z"
       id="path183" /></g></svg>
